<?xml version="1.0" encoding="iso-8859-1"?>
<!-- Generator: Adobe Illustrator 19.0.0, SVG Export Plug-In . SVG Version: 6.00 Build 0)  -->
<svg version="1.1" id="Capa_1" xmlns="http://www.w3.org/2000/svg" xmlns:xlink="http://www.w3.org/1999/xlink" x="0px" y="0px"
	 viewBox="0 0 512 512" style="enable-background:new 0 0 512 512;" xml:space="preserve">
<path style="fill:#3E3D42;" d="M453.074,372.434c0,22.103-13.175,42.043-33.478,50.777C384.91,438.133,326.013,457.74,256,457.74
	s-128.91-19.606-163.596-34.529c-20.303-8.734-33.478-28.675-33.478-50.777V158.48h394.147V372.434z"/>
<path style="fill:#2D2D30;" d="M58.927,158.48v213.954c0,22.085,13.151,42.029,33.437,50.759
	c34.681,14.924,93.596,34.546,163.636,34.546c3.489,0,6.942-0.062,10.375-0.156c-4.353-10.536-6.189-20.93-6.745-29.969
	c-0.995-16.202,7.674-31.467,21.963-39.166l171.481-92.403V158.48H58.927z"/>
<path style="fill:#57565C;" d="M220.041,46.575L15.109,159.435c-20.145,11.094-20.145,40.045,0,51.139l204.932,112.86
	c22.388,12.329,49.531,12.329,71.919,0l204.932-112.86c20.145-11.094,20.145-40.045,0-51.139L291.96,46.575
	C269.572,34.246,242.429,34.246,220.041,46.575z"/>
<path style="fill:#3E3D42;" d="M291.96,46.575c-22.388-12.329-49.531-12.329-71.919,0L15.109,159.435
	c-20.145,11.094-20.145,40.045,0,51.139L220.04,323.434c22.388,12.329,49.531,12.329,71.919,0
	C53.383,178.187,291.96,46.575,291.96,46.575z"/>
<ellipse style="fill:#FFEB99;" cx="256" cy="185" rx="37.437" ry="22.464"/>
<path style="fill:#FFDE55;" d="M239.841,185.004c0-10.188,11.307-18.787,26.8-21.538c-3.374-0.6-6.942-0.926-10.641-0.926
	c-20.678,0-37.441,10.058-37.441,22.464c0,12.406,16.763,22.464,37.441,22.464c3.697,0,7.267-0.327,10.641-0.926
	C251.148,203.792,239.841,195.193,239.841,185.004z"/>
<path style="fill:#EEBF00;" d="M393.663,385.09c-4.268,0-7.726-3.458-7.726-7.726V271.803l-133.905-80.171
	c-3.661-2.192-4.852-6.936-2.66-10.597c2.192-3.662,6.936-4.852,10.597-2.66l137.663,82.421c2.331,1.395,3.757,3.913,3.757,6.629
	v109.94C401.39,381.632,397.93,385.09,393.663,385.09z"/>
<path style="fill:#FFCD00;" d="M417.72,409.869v54.175c0,5.87-4.758,10.628-10.628,10.628h-26.153
	c-5.87,0-10.628-4.758-10.628-10.628v-54.961c0-13.24,10.854-23.943,24.148-23.7C407.509,385.622,417.72,396.818,417.72,409.869z"/>
<path style="fill:#EEBF00;" d="M394.016,464.044v-54.961c0-8.729,4.719-16.354,11.745-20.468c-3.327-1.982-7.171-3.158-11.301-3.233
	c-13.296-0.243-24.148,10.461-24.148,23.7v54.961c0,5.87,4.758,10.628,10.628,10.628h23.704
	C398.774,474.673,394.016,469.914,394.016,464.044z"/>
<circle style="fill:#FFEB99;" cx="394.014" cy="383.217" r="23.704"/>
<path style="fill:#FFDE55;" d="M394.016,383.219c0-8.773,4.769-16.426,11.852-20.525c-3.487-2.018-7.534-3.179-11.852-3.179
	c-13.092,0-23.704,10.613-23.704,23.704s10.613,23.704,23.704,23.704c4.32,0,8.365-1.161,11.852-3.179
	C398.784,399.646,394.016,391.992,394.016,383.219z"/>
<g>
</g>
<g>
</g>
<g>
</g>
<g>
</g>
<g>
</g>
<g>
</g>
<g>
</g>
<g>
</g>
<g>
</g>
<g>
</g>
<g>
</g>
<g>
</g>
<g>
</g>
<g>
</g>
<g>
</g>
</svg>
