<?xml version="1.0" encoding="iso-8859-1"?>
<!-- Generator: Adobe Illustrator 19.0.0, SVG Export Plug-In . SVG Version: 6.00 Build 0)  -->
<svg version="1.1" id="Capa_1" xmlns="http://www.w3.org/2000/svg" xmlns:xlink="http://www.w3.org/1999/xlink" x="0px" y="0px"
	 viewBox="0 0 512.001 512.001" style="enable-background:new 0 0 512.001 512.001;" xml:space="preserve">
<path style="fill:#D9DBDB;" d="M89.76,422.189c-91.853-91.854-91.86-240.518,0-332.378c91.854-91.854,240.518-91.86,332.377,0
	c44.391,44.391,68.838,103.411,68.838,166.188s-24.447,121.798-68.838,166.189C330.286,514.041,181.621,514.049,89.76,422.189z
	 M255.95,36.425C134.876,36.425,36.375,134.926,36.375,256s98.501,219.575,219.575,219.575S475.524,377.073,475.524,256
	S377.023,36.425,255.95,36.425z"/>
<g>
	<circle style="fill:#6EDCF9;" cx="483.302" cy="256" r="28.67"/>
	<circle style="fill:#6EDCF9;" cx="483.302" cy="256" r="28.67"/>
</g>
<path style="fill:#54B8E5;" d="M497.46,231.075c-19.001-10.818-42.83,2.905-42.827,24.925
	c-0.003,21.999,23.804,35.757,42.828,24.926C478.118,269.913,478.149,242.067,497.46,231.075z"/>
<circle style="fill:#6EDCF9;" cx="28.699" cy="256" r="28.67"/>
<path style="fill:#54B8E5;" d="M42.858,231.075C23.857,220.257,0.028,233.979,0.031,256C0.029,271.835,12.867,284.67,28.7,284.67
	c5.151,0,9.981-1.366,14.159-3.745C23.515,269.912,23.547,242.067,42.858,231.075z"/>
<path style="fill:#585A60;" d="M255.378,83.455c-34.582,0-65.847,27.119-65.847,67.455c0,10.682,0,19.033,0,31.212h131.693
	c0-11.528,0-20.17,0-32.819C321.225,112.933,291.745,83.455,255.378,83.455z"/>
<path style="fill:#414356;" d="M206.305,149.304c0-33.528,25.056-61.176,57.459-65.298c-37.818-4.804-74.233,23.33-74.233,66.905
	c0,10.682,0,19.033,0,31.212h16.774C206.305,166.983,206.305,164.649,206.305,149.304z"/>
<path style="fill:#2571A0;" d="M356.265,295.302l-71.781-30.026L256,298.833l-28.585-33.514l-71.679,29.983
	c0,0-26.922,11.067-26.922,41.757v47.899c0,7.475,5.475,14.817,16.16,14.817c7.528,0,208.598,0,223.395,0
	c8.184,0,14.816-6.634,14.816-14.817v-47.899C383.185,306.368,356.265,295.302,356.265,295.302z"/>
<path style="fill:#1A6489;" d="M153.51,384.958v-59.012c0-21.522,13.232-33.386,21.141-38.557l-18.916,7.913
	c0,0-26.922,11.067-26.922,41.757v47.899c0,7.475,5.475,14.817,16.16,14.817h23.352C160.142,399.775,153.51,393.141,153.51,384.958z
	"/>
<g>
	<path style="fill:#EA976E;" d="M303.709,168.143c0,44.998,0.013,38.865-0.031,40.755c13.696,2.117,25.225-7.978,25.225-20.376
		C328.903,176.103,317.366,166.057,303.709,168.143z"/>
	<path style="fill:#EA976E;" d="M207.05,168.15c-12.158-1.622-25.689,7.708-25.689,20.356c0,12.375,11.731,22.484,25.718,20.368
		C207.037,207.062,207.05,212.818,207.05,168.15z"/>
</g>
<g>
	<path style="fill:#E2865D;" d="M322.591,173.961c-4.659-4.477-11.448-6.955-18.881-5.817c0,44.998,0.013,38.865-0.031,40.755
		c7.455,1.151,14.25-1.332,18.913-5.816v-29.122H322.591z"/>
	<path style="fill:#E2865D;" d="M207.05,203.061c-7.858-7.413-9.288-19.89,0-28.53v-6.381c-12.158-1.622-25.689,7.708-25.689,20.356
		c0,12.375,11.731,22.484,25.718,20.368C207.044,207.352,207.05,209.282,207.05,203.061z"/>
</g>
<path style="fill:#EA976E;" d="M256.001,298.833l28.484-33.557l-1.007-23.488c-17.248,11.895-39.476,10.666-55.029,0.73
	l-1.032,22.802L256.001,298.833z"/>
<path style="fill:#E2865D;" d="M255.021,267.496c-2.784-3.271-2.692-8.231-2.692-8.231l0,0l0.41-9.058
	c-9.257-0.545-17.458-3.325-24.291-7.69l-1.032,22.802l28.585,33.514l12.843-15.131L255.021,267.496z"/>
<path style="fill:#5FAFE0;" d="M144.974,399.775h29.659v-54.828c0-19.792-14.532-36.188-33.507-39.105
	c-8.059,8.476-12.313,19.116-12.313,31.218v47.899C128.814,392.434,134.289,399.775,144.974,399.775z"/>
<path style="fill:#4A94CC;" d="M153.51,384.958c0-64.477-0.677-64.747,2.302-73.71c-4.398-2.713-9.367-4.589-14.684-5.407
	c-7.75,8.167-11.632,17.87-12.238,28.467c-0.105,1.962-0.075-1.573-0.075,50.651c0,7.475,5.475,14.817,16.16,14.817h23.352
	C160.142,399.775,153.51,393.141,153.51,384.958z"/>
<path style="fill:#5FAFE0;" d="M370.872,305.841c-18.973,2.919-33.506,19.315-33.506,39.105v54.828c12.833,0,19.916,0,31.003,0
	c8.184,0,14.816-6.634,14.816-14.817v-47.899C383.185,324.943,378.839,314.153,370.872,305.841z"/>
<path style="fill:#F0A479;" d="M287.81,142.021c-1.488-1.6-3.91-1.895-5.737-0.699c-19.591,12.796-45.5,20.887-70.958,19.057
	c-2.584-0.195-4.809,1.866-4.809,4.472v39.339c0,25.282,19.809,48.373,49.775,48.373c26.673,0,48.376-21.702,48.376-48.373v-42.513
	C304.456,159.327,304.557,160.025,287.81,142.021z"/>
<path style="fill:#EA9063;" d="M231.001,204.191v-44.326c-6.58,0.78-13.247,0.992-19.887,0.514
	c-2.584-0.195-4.809,1.866-4.809,4.472v39.339c0,32.538,30.96,54.717,61.719,46.879
	C245.322,245.584,231.001,225.684,231.001,204.191z"/>
<circle style="fill:#6EDCF9;" cx="256" cy="28.699" r="28.67"/>
<path style="fill:#54B8E5;" d="M270.159,3.773c-19.001-10.818-42.83,2.904-42.827,24.925c-0.003,21.999,23.804,35.757,42.828,24.926
	C250.817,42.612,250.848,14.766,270.159,3.773z"/>
<circle style="fill:#6EDCF9;" cx="256" cy="483.303" r="28.67"/>
<path style="fill:#54B8E5;" d="M270.159,458.375c-19-10.818-42.83,2.904-42.827,24.925c-0.003,21.999,23.804,35.757,42.828,24.926
	C250.817,497.213,250.848,469.367,270.159,458.375z"/>
<g>
</g>
<g>
</g>
<g>
</g>
<g>
</g>
<g>
</g>
<g>
</g>
<g>
</g>
<g>
</g>
<g>
</g>
<g>
</g>
<g>
</g>
<g>
</g>
<g>
</g>
<g>
</g>
<g>
</g>
</svg>
